<?xml version="1.0" standalone="no"?>
<!DOCTYPE svg PUBLIC "-//W3C//DTD SVG 20010904//EN"
 "http://www.w3.org/TR/2001/REC-SVG-20010904/DTD/svg10.dtd">
<svg version="1.0" xmlns="http://www.w3.org/2000/svg"
 width="803.000000pt" height="513.000000pt" viewBox="0 0 803.000000 513.000000"
 preserveAspectRatio="xMidYMid meet">
<metadata>
Created by potrace 1.16, written by Peter Selinger 2001-2019
</metadata>
<g transform="translate(0.000000,513.000000) scale(0.100000,-0.100000)"
fill="#000000" stroke="none">
<path d="M2255 4970 c-4 -6 18 -41 47 -78 72 -89 73 -92 48 -92 -12 0 -46 24
-79 55 -49 47 -60 53 -70 41 -10 -12 -3 -21 45 -53 l57 -38 -161 -3 c-135 -2
-162 -5 -162 -17 0 -10 10 -15 30 -15 l30 0 0 -73 c0 -81 13 -110 61 -130 l29
-12 -61 -48 c-49 -40 -58 -51 -48 -63 9 -12 25 -2 90 57 44 39 82 75 85 80 15
26 24 1 24 -71 0 -64 3 -80 15 -80 13 0 15 26 15 170 l0 170 60 0 60 0 0 -170
c0 -144 2 -170 15 -170 13 0 15 26 15 170 l0 170 125 0 125 0 0 -25 c0 -24 -3
-25 -53 -25 -62 0 -97 -20 -97 -56 0 -13 9 -33 19 -43 15 -15 18 -29 14 -62
-5 -50 17 -84 64 -95 36 -9 110 12 150 42 17 13 34 24 37 24 3 0 6 -22 6 -50
0 -38 4 -50 15 -50 13 0 15 26 15 170 l0 170 65 0 65 0 0 -170 c0 -144 2 -170
15 -170 13 0 15 26 15 170 l0 170 60 0 60 0 0 -170 c0 -144 2 -170 15 -170 13
0 15 26 15 170 l0 170 85 0 85 0 0 -55 c0 -54 0 -55 -30 -55 -23 0 -30 -5 -30
-19 0 -19 62 -81 80 -81 6 0 10 44 10 105 l0 105 65 0 65 0 0 -170 c0 -144 2
-170 15 -170 13 0 15 26 15 170 l0 170 135 0 135 0 0 -93 c0 -80 -3 -96 -20
-115 -41 -43 -110 -12 -110 50 0 37 32 68 70 68 34 0 40 15 11 25 -52 16 -115
-33 -115 -89 0 -80 70 -124 147 -91 15 6 17 1 17 -44 0 -44 3 -51 20 -51 19 0
20 7 20 94 0 80 3 97 21 120 16 21 28 26 52 24 59 -6 67 -80 16 -134 -20 -21
-21 -54 -2 -54 4 0 23 21 41 48 48 70 42 130 -15 160 -30 16 -64 15 -91 -4
-22 -15 -22 -15 -22 35 l0 51 135 0 135 0 0 -170 c0 -144 2 -170 15 -170 13 0
15 26 15 170 l0 170 30 0 c20 0 30 5 30 15 0 10 -10 15 -29 15 -25 0 -32 7
-57 58 -31 60 -79 102 -120 102 -66 0 -103 -54 -84 -120 6 -19 10 -36 10 -37
0 -2 -98 -3 -219 -3 l-218 0 -70 69 c-79 77 -140 107 -199 98 -68 -11 -108
-79 -84 -141 l10 -26 -59 0 -59 0 -68 83 c-37 45 -71 86 -75 91 -5 5 -15 4
-24 -4 -14 -12 -7 -22 62 -92 l78 -78 -280 0 -280 0 -55 90 c-53 85 -71 103
-85 80z m1004 -49 c21 -11 59 -41 85 -68 l48 -48 -123 -3 c-68 -1 -129 0 -136
2 -24 9 -16 84 12 111 29 30 63 32 114 6z m743 -11 c25 -19 58 -76 58 -99 0
-7 -26 -11 -70 -11 -58 0 -71 3 -80 19 -14 27 -13 84 2 99 18 18 62 14 90 -8z
m-1782 -209 c0 -63 -2 -71 -26 -90 -15 -12 -41 -21 -60 -21 -48 0 -64 29 -64
112 l0 68 75 0 75 0 0 -69z m570 -26 c0 -90 -1 -95 -27 -121 -35 -33 -100 -63
-135 -64 -30 0 -68 31 -68 55 0 27 38 55 75 55 27 0 33 3 28 16 -5 13 -15 15
-54 10 -51 -7 -83 11 -77 43 3 13 19 17 81 19 l77 3 0 39 0 40 50 0 50 0 0
-95z"/>
<path d="M6245 4961 c-47 -20 -74 -85 -56 -134 10 -26 9 -27 -24 -27 -24 0
-35 -5 -35 -15 0 -10 11 -15 35 -15 l35 0 0 -170 c0 -144 2 -170 15 -170 13 0
15 26 15 170 l0 170 160 0 160 0 0 -40 0 -40 -90 0 c-84 0 -93 -2 -116 -26
-22 -21 -25 -31 -19 -62 9 -49 28 -83 70 -128 26 -28 39 -34 47 -26 8 8 3 20
-20 47 -44 50 -64 91 -60 128 l3 32 93 3 92 3 0 -116 c0 -96 3 -115 15 -115
13 0 15 26 15 170 l0 170 110 0 110 0 0 -59 c0 -33 -5 -63 -11 -66 -19 -12
-55 4 -67 31 -12 25 -32 29 -39 7 -4 -11 100 -171 143 -221 22 -24 33 -30 44
-23 12 8 9 16 -18 48 -18 21 -45 57 -62 79 l-30 42 27 7 c14 3 38 19 54 36 69
74 143 -1 88 -90 -26 -43 -10 -67 20 -30 50 59 48 131 -5 165 -21 15 -33 16
-65 7 l-39 -10 0 38 0 39 115 0 115 0 0 -79 c0 -64 4 -83 20 -104 40 -51 141
-42 148 13 l4 25 -24 -22 c-15 -14 -37 -23 -56 -23 -46 0 -62 30 -62 117 l0
73 75 0 75 0 0 -170 c0 -144 2 -170 15 -170 13 0 15 26 15 170 l0 170 60 0 60
0 0 -170 c0 -144 2 -170 15 -170 13 0 15 26 15 170 l0 170 160 0 160 0 0 -40
0 -40 -90 0 c-84 0 -93 -2 -116 -26 -22 -21 -25 -31 -19 -62 9 -49 28 -83 70
-128 26 -28 39 -34 47 -26 8 8 3 20 -20 47 -44 50 -64 91 -60 128 l3 32 93 3
92 3 0 -116 c0 -96 3 -115 15 -115 13 0 15 26 15 170 l0 170 30 0 c20 0 30 5
30 15 0 11 -12 15 -49 15 -46 0 -51 3 -118 69 -79 77 -140 107 -199 98 -68
-11 -108 -79 -84 -141 l10 -26 -429 0 -429 0 -65 65 c-90 90 -168 122 -232 96z
m114 -40 c21 -11 59 -41 85 -68 l48 -48 -123 -3 c-68 -1 -129 0 -136 2 -24 9
-16 84 12 111 29 30 63 32 114 6z m1200 0 c21 -11 59 -41 85 -68 l48 -48 -123
-3 c-68 -1 -129 0 -136 2 -24 9 -16 84 12 111 29 30 63 32 114 6z"/>
<path d="M1123 4948 c-31 -15 -46 -64 -33 -108 6 -19 10 -36 10 -37 0 -2 -187
-3 -415 -3 -362 0 -415 -2 -415 -15 0 -11 12 -15 45 -15 l45 0 0 -70 0 -70
-60 0 -60 0 0 65 c0 57 -3 69 -25 90 -50 51 -131 10 -110 -55 9 -30 34 -25 32
6 -2 30 22 50 47 41 13 -5 16 -21 16 -76 0 -68 -1 -70 -27 -73 -39 -4 -38 -20
2 -61 46 -48 65 -48 65 -2 l0 36 58 -3 57 -3 3 -82 c2 -65 6 -83 17 -83 13 0
15 28 15 170 l0 170 65 0 65 0 0 -170 c0 -144 2 -170 15 -170 13 0 15 26 15
170 l0 170 115 0 115 0 0 -60 c0 -54 -2 -62 -25 -72 -28 -13 -69 8 -80 41 -6
20 -35 19 -35 -1 0 -15 68 -117 123 -185 39 -49 53 -60 64 -52 10 9 7 18 -17
48 -17 20 -44 55 -61 79 l-30 42 29 0 c49 0 72 32 72 100 l0 60 160 0 160 0 0
-40 0 -40 -90 0 c-84 0 -93 -2 -116 -26 -22 -21 -25 -31 -19 -62 9 -49 28 -83
70 -128 26 -28 39 -34 47 -26 8 8 3 20 -20 47 -44 50 -64 91 -60 128 l3 32 93
3 92 3 0 -116 c0 -96 3 -115 15 -115 13 0 15 26 15 170 l0 170 60 0 60 0 0
-170 c0 -144 2 -170 15 -170 13 0 15 26 15 170 l0 170 80 0 c78 0 80 -1 95
-30 8 -16 15 -38 15 -48 0 -26 -31 -52 -64 -52 -24 0 -26 -3 -21 -22 24 -80
85 -121 154 -101 20 6 44 14 54 18 15 6 17 1 17 -49 0 -43 3 -56 15 -56 13 0
15 26 15 170 l0 170 30 0 c20 0 30 5 30 15 0 13 -30 15 -209 15 l-209 0 -28
58 c-44 86 -108 120 -171 90z m99 -38 c25 -19 58 -76 58 -99 0 -7 -26 -11 -70
-11 -58 0 -71 3 -80 19 -14 27 -13 84 2 99 18 18 62 14 90 -8z m428 -229 c0
-87 -1 -90 -31 -115 -49 -42 -119 -35 -144 14 -13 26 -13 27 21 43 46 22 60
59 40 109 l-14 38 64 0 64 0 0 -89z"/>
<path d="M5062 4800 c-29 -12 -44 -52 -33 -84 10 -24 30 -36 62 -36 26 0 24
13 -3 25 -44 19 -30 75 18 75 60 0 85 -86 38 -134 -29 -29 -74 -35 -74 -11 0
12 -14 15 -66 15 -58 0 -65 -2 -54 -15 7 -8 25 -15 41 -15 18 0 30 -6 34 -19
10 -31 81 -89 118 -96 40 -8 109 9 127 30 22 27 30 16 30 -45 0 -47 3 -60 15
-60 13 0 15 26 15 170 l0 170 65 0 65 0 0 -170 c0 -144 2 -170 15 -170 13 0
15 26 15 170 l0 170 155 0 155 0 0 -45 0 -44 -102 -3 c-119 -3 -129 -13 -78
-72 37 -41 50 -39 50 10 l0 34 65 0 65 0 0 -110 c0 -91 3 -110 15 -110 13 0
15 26 15 170 l0 170 30 0 c20 0 30 5 30 15 0 13 -43 15 -330 15 -287 0 -330
-2 -330 -15 0 -10 11 -15 35 -15 l35 0 0 -72 c0 -84 -12 -114 -59 -145 -43
-29 -99 -30 -135 -2 -14 11 -26 24 -26 27 0 4 22 15 49 25 58 20 87 67 77 121
-12 61 -86 101 -144 76z"/>
<path d="M4310 4785 c0 -12 16 -15 80 -15 l81 0 -3 -67 c-3 -58 -6 -68 -23
-72 -12 -2 -28 8 -45 27 -16 19 -30 28 -38 23 -13 -8 29 -85 107 -191 40 -55
46 -59 60 -46 14 14 12 19 -15 48 -17 18 -41 48 -54 67 -19 27 -20 35 -9 42 8
5 19 9 26 9 21 0 33 36 33 99 l0 61 70 0 70 0 0 -60 0 -60 -66 0 c-57 0 -65
-2 -54 -15 7 -8 34 -15 63 -17 l52 -3 3 -92 c2 -74 6 -93 17 -93 13 0 15 27
15 170 l0 170 105 0 106 0 -3 -67 c-3 -58 -6 -68 -23 -72 -12 -2 -28 8 -45 27
-16 19 -30 28 -38 23 -13 -8 29 -85 107 -191 40 -55 46 -59 60 -46 14 14 12
19 -15 48 -17 18 -41 48 -54 67 -19 27 -20 35 -9 42 8 5 19 9 26 9 21 0 33 36
33 99 l0 61 40 0 c29 0 40 4 40 15 0 13 -46 15 -350 15 -304 0 -350 -2 -350
-15z"/>
<path d="M230 3995 l0 -185 70 0 70 0 0 185 0 185 -70 0 -70 0 0 -185z"/>
<path d="M500 3995 l0 -185 70 0 70 0 0 185 0 185 -70 0 -70 0 0 -185z"/>
<path d="M7390 4000 l0 -180 70 0 70 0 0 180 0 180 -70 0 -70 0 0 -180z"/>
<path d="M7650 4000 l0 -180 70 0 70 0 0 180 0 180 -70 0 -70 0 0 -180z"/>
<path d="M770 3995 l0 -175 275 0 275 0 0 -1015 0 -1015 -275 0 -275 0 0 -175
0 -175 1030 0 1030 0 0 180 0 180 -270 0 -270 0 0 1015 0 1015 270 0 270 0 0
170 0 170 -1030 0 -1030 0 0 -175z"/>
<path d="M2970 4000 l0 -170 275 0 275 0 0 -1015 0 -1015 -275 0 -275 0 2
-177 3 -178 1035 0 1035 0 3 178 2 177 -280 0 -280 0 0 1010 0 1010 280 0 280
0 0 175 0 175 -1040 0 -1040 0 0 -170z"/>
<path d="M5190 3995 l0 -175 270 0 270 0 0 -1190 0 -1190 485 0 485 0 0 1190
0 1190 280 0 280 0 0 175 0 175 -1035 0 -1035 0 0 -175z"/>
<path d="M2440 2815 l0 -865 70 0 70 0 0 865 0 865 -70 0 -70 0 0 -865z"/>
<path d="M2700 3469 l0 -212 28 52 c15 28 46 73 70 100 l42 50 0 110 0 111
-70 0 -70 0 0 -211z"/>
<path d="M2980 3569 l0 -111 46 -51 c25 -28 56 -71 69 -96 l24 -46 1 208 0
207 -70 0 -70 0 0 -111z"/>
<path d="M3240 2815 l0 -865 70 0 70 0 0 865 0 865 -70 0 -70 0 0 -865z"/>
<path d="M4640 3434 l0 -246 34 30 c19 16 52 40 75 53 l41 23 0 193 0 193 -75
0 -75 0 0 -246z"/>
<path d="M4910 3505 l0 -175 70 0 70 0 0 175 0 175 -70 0 -70 0 0 -175z"/>
<path d="M5180 3482 l0 -198 39 -22 c21 -12 44 -29 51 -37 8 -9 22 -21 32 -26
17 -9 18 1 18 236 l0 245 -70 0 -70 0 0 -198z"/>
<path d="M5440 2560 l0 -1120 70 0 70 0 0 1120 0 1120 -70 0 -70 0 0 -1120z"/>
<path d="M6850 3439 l0 -241 38 30 c20 16 52 37 70 46 l32 17 0 194 0 195 -70
0 -70 0 0 -241z"/>
<path d="M7110 3506 l0 -173 70 1 70 0 0 173 0 173 -70 0 -70 0 0 -174z"/>
<path d="M7390 3483 l0 -198 38 -22 c20 -13 52 -35 70 -49 l32 -27 0 247 0
246 -70 0 -70 0 0 -197z"/>
<path d="M7650 2560 l0 -1120 70 0 70 0 0 1120 0 1120 -70 0 -70 0 0 -1120z"/>
<path d="M230 2555 l0 -1115 70 0 70 0 0 1115 0 1115 -70 0 -70 0 0 -1115z"/>
<path d="M500 3425 l0 -245 61 45 c34 25 65 45 70 45 5 0 9 90 9 200 l0 200
-70 0 -70 0 0 -245z"/>
<path d="M770 3495 l0 -175 70 0 70 0 0 175 0 175 -70 0 -70 0 0 -175z"/>
<path d="M1030 3477 l0 -192 70 -47 70 -46 0 239 0 239 -70 0 -70 0 0 -193z"/>
<path d="M2846 3266 c-115 -43 -160 -183 -92 -287 78 -117 276 -97 325 34 18
46 13 124 -9 167 -39 77 -142 116 -224 86z"/>
<path d="M7134 3270 c-82 -19 -134 -92 -134 -185 0 -111 74 -185 186 -185 168
0 246 217 119 329 -50 44 -105 57 -171 41z"/>
<path d="M4895 3256 c-66 -30 -105 -94 -105 -171 0 -55 14 -92 48 -128 40 -43
75 -57 137 -57 62 0 97 14 137 57 75 79 61 211 -28 280 -29 22 -49 28 -98 30
-37 2 -73 -2 -91 -11z"/>
<path d="M747 3239 c-20 -11 -49 -38 -65 -61 -22 -34 -27 -53 -27 -104 0 -53
4 -68 30 -105 44 -62 85 -81 166 -77 53 3 73 9 101 30 103 78 93 249 -18 314
-52 31 -132 32 -187 3z"/>
<path d="M7500 2975 c-14 -14 -44 -38 -67 -53 l-43 -27 0 -727 0 -728 70 0 70
0 0 780 c0 429 -1 780 -3 780 -2 0 -14 -11 -27 -25z"/>
<path d="M5248 2936 l-68 -51 0 -472 0 -473 70 0 70 0 0 525 c0 289 -1 525 -2
524 -2 -1 -33 -24 -70 -53z"/>
<path d="M500 2461 l0 -521 70 0 70 0 0 469 0 469 -37 23 c-20 13 -52 36 -70
52 l-33 29 0 -521z"/>
<path d="M4640 2461 l0 -521 75 0 75 0 0 474 c0 467 0 475 -20 481 -11 4 -39
21 -63 39 -23 17 -48 35 -54 40 -10 6 -13 -100 -13 -513z"/>
<path d="M6850 2460 l0 -520 70 0 70 0 0 474 0 474 -43 25 c-23 14 -51 34 -61
46 -11 12 -23 21 -28 21 -4 0 -8 -234 -8 -520z"/>
<path d="M1141 2946 c-13 -13 -43 -35 -67 -48 l-44 -23 0 -467 0 -468 70 0 70
0 0 515 c0 283 -1 515 -3 515 -2 0 -14 -11 -26 -24z"/>
<path d="M2700 2433 l0 -483 70 0 70 0 0 380 0 380 -50 62 c-27 34 -59 80 -70
102 l-20 41 0 -482z"/>
<path d="M3092 2857 c-12 -24 -43 -66 -67 -94 l-45 -51 0 -381 0 -381 70 0 70
0 0 475 c0 261 -1 475 -3 475 -1 0 -12 -19 -25 -43z"/>
<path d="M4910 2393 l0 -453 70 0 70 0 0 453 0 453 -70 0 -70 -1 0 -452z"/>
<path d="M7110 2395 l0 -455 70 0 70 0 0 455 0 455 -70 0 -70 0 0 -455z"/>
<path d="M770 2388 l0 -448 70 0 70 0 0 448 0 447 -70 1 -70 0 0 -448z"/>
<path d="M500 1620 l0 -180 70 0 70 0 0 180 0 180 -70 0 -70 0 0 -180z"/>
<path d="M5180 1620 l0 -180 70 0 70 0 0 180 0 180 -70 0 -70 0 0 -180z"/>
<path d="M6980 1620 l0 -180 70 0 70 0 0 180 0 180 -70 0 -70 0 0 -180z"/>
<path d="M210 990 l0 -70 120 0 120 0 0 -345 0 -345 80 0 80 0 0 345 0 345
120 0 120 0 0 70 0 70 -320 0 -320 0 0 -70z"/>
<path d="M1330 645 l0 -415 80 0 80 0 0 415 0 415 -80 0 -80 0 0 -415z"/>
<path d="M2030 645 l0 -415 80 0 80 0 0 176 0 176 60 -4 c78 -6 97 -23 216
-205 l94 -143 95 0 c52 0 95 2 95 5 0 8 -141 238 -168 273 -15 20 -44 48 -66
64 -24 17 -33 29 -25 32 147 43 193 98 194 226 0 64 -4 82 -27 122 -54 92
-118 107 -430 108 l-198 0 0 -415z m466 242 c15 -18 24 -41 24 -63 0 -84 -41
-104 -210 -104 l-120 0 0 101 0 101 141 -4 c140 -3 141 -3 165 -31z"/>
<path d="M3210 828 c1 -381 14 -461 87 -530 57 -54 116 -72 243 -72 98 0 122
3 166 22 61 27 106 72 131 127 15 35 18 80 21 363 l4 322 -81 0 -81 0 0 -282
c0 -156 -5 -299 -10 -319 -16 -57 -60 -92 -124 -97 -66 -5 -114 10 -150 47
-38 39 -45 107 -46 409 l0 242 -80 0 -80 0 0 -232z"/>
<path d="M4410 646 l0 -416 80 0 80 0 0 154 0 153 134 6 c188 7 244 33 296
135 18 33 23 61 23 120 1 118 -42 195 -131 238 -31 15 -72 19 -259 22 l-223 4
0 -416z m412 236 c28 -28 33 -39 33 -81 0 -88 -53 -121 -195 -121 l-90 0 0
121 0 121 110 -4 c109 -3 110 -3 142 -36z"/>
<path d="M5646 943 c-25 -65 -97 -251 -160 -413 l-114 -295 76 -3 c41 -2 80
-1 87 2 6 2 26 45 44 95 l33 91 163 0 163 0 37 -95 37 -95 88 0 89 0 -24 58
c-12 31 -87 218 -165 415 l-141 357 -84 0 -83 0 -46 -117z m183 -232 c28 -76
51 -141 51 -145 0 -3 -49 -6 -109 -6 l-108 0 42 118 c57 156 64 172 69 172 2
0 27 -62 55 -139z"/>
<path d="M6510 990 l0 -70 120 0 120 0 0 -345 0 -345 80 0 80 0 0 345 0 345
120 0 120 0 0 70 0 70 -320 0 -320 0 0 -70z"/>
<path d="M7630 645 l0 -415 80 0 80 0 0 415 0 415 -80 0 -80 0 0 -415z"/>
</g>
</svg>
